<svg xmlns="http://www.w3.org/2000/svg" viewBox="0 0 96 96" role="img" aria-label="PeriDesk monogram P with tooth">
  <defs>
    <linearGradient id="gMonoBlue" x1="0" x2="1" y1="0" y2="1">
      <stop offset="0%" stop-color="#1663ff"/>
      <stop offset="100%" stop-color="#5a67d8"/>
    </linearGradient>
  </defs>
  <circle cx="48" cy="48" r="44" fill="#f2f6ff" stroke="#cfe0ff"/>
  <!-- Stylized P -->
  <path d="M30 68V26h22c10 0 16 6 16 14s-6 14-16 14H42v14z" fill="url(#gMonoBlue)"/>
  <!-- Tooth in bowl of P -->
  <path d="M54 32c-7 0-10 6-10 12 0 6 3 11 5 16 1 3 4 3 5 0 1-3 2-6 5-6s4 3 5 6c1 3 4 3 5 0 2-5 5-10 5-16 0-6-3-12-10-12z" fill="#ffffff"/>
</svg>